<svg xmlns="http://www.w3.org/2000/svg" width="1200" height="900" viewBox="0 0 1200 900">
  <defs>
    <marker id="arrow-green" markerWidth="8" markerHeight="8" refX="4" refY="4" orient="auto">
      <path d="M0,0 L8,4 L0,8 z" fill="#1f6a33"/>
    </marker>
  </defs>
  <rect x="0" y="0" width="1200" height="900" fill="#f5f5f0"/>
  <text x="600" y="58" text-anchor="middle" font-size="34" font-family="Arial, sans-serif" fill="#2c3e50">
    Ausbaustufe - 2 Kleinfelder plus Pass-Vierecke
  </text>

  <rect x="80" y="110" width="1040" height="500" fill="#d8ead2" stroke="#4f7f5f" stroke-width="4"/>
  <text x="600" y="145" text-anchor="middle" font-size="24" font-family="Arial, sans-serif" fill="#1f3b2b">
    Hauptaufbau auf dem Trainingsplatz
  </text>

  <rect x="140" y="190" width="430" height="360" fill="#b7ddb0" stroke="#1f6a33" stroke-width="3"/>
  <rect x="630" y="190" width="430" height="360" fill="#b7ddb0" stroke="#1f6a33" stroke-width="3"/>
  <text x="355" y="225" text-anchor="middle" font-size="26" font-family="Arial, sans-serif" fill="#0f3d1f">Kleinfeld A</text>
  <text x="845" y="225" text-anchor="middle" font-size="26" font-family="Arial, sans-serif" fill="#0f3d1f">Kleinfeld B</text>

  <rect x="315" y="190" width="80" height="14" fill="#1b4f72"/>
  <rect x="315" y="536" width="80" height="14" fill="#1b4f72"/>
  <rect x="805" y="190" width="80" height="14" fill="#1b4f72"/>
  <rect x="805" y="536" width="80" height="14" fill="#1b4f72"/>

  <rect x="155" y="190" width="24" height="10" fill="#f39c12"/>
  <rect x="531" y="190" width="24" height="10" fill="#f39c12"/>
  <rect x="155" y="540" width="24" height="10" fill="#f39c12"/>
  <rect x="531" y="540" width="24" height="10" fill="#f39c12"/>
  <rect x="645" y="190" width="24" height="10" fill="#f39c12"/>
  <rect x="1021" y="190" width="24" height="10" fill="#f39c12"/>
  <rect x="645" y="540" width="24" height="10" fill="#f39c12"/>
  <rect x="1021" y="540" width="24" height="10" fill="#f39c12"/>

  <line x1="355" y1="190" x2="355" y2="550" stroke="#ffffff" stroke-width="3" stroke-dasharray="10 10"/>
  <line x1="845" y1="190" x2="845" y2="550" stroke="#ffffff" stroke-width="3" stroke-dasharray="10 10"/>

  <line x1="150" y1="172" x2="560" y2="172" stroke="#1f6a33" stroke-width="3" marker-start="url(#arrow-green)" marker-end="url(#arrow-green)"/>
  <text x="355" y="162" text-anchor="middle" font-size="18" font-family="Arial, sans-serif" fill="#1f6a33">Breite 28 m</text>

  <line x1="112" y1="190" x2="112" y2="550" stroke="#1f6a33" stroke-width="3" marker-start="url(#arrow-green)" marker-end="url(#arrow-green)"/>
  <text x="96" y="370" text-anchor="middle" font-size="18" font-family="Arial, sans-serif" fill="#1f6a33" transform="rotate(-90 96 370)">Laenge 30 m</text>

  <line x1="640" y1="172" x2="1050" y2="172" stroke="#1f6a33" stroke-width="3" marker-start="url(#arrow-green)" marker-end="url(#arrow-green)"/>
  <text x="845" y="162" text-anchor="middle" font-size="18" font-family="Arial, sans-serif" fill="#1f6a33">Breite 28 m</text>

  <line x1="1088" y1="190" x2="1088" y2="550" stroke="#1f6a33" stroke-width="3" marker-start="url(#arrow-green)" marker-end="url(#arrow-green)"/>
  <text x="1104" y="370" text-anchor="middle" font-size="18" font-family="Arial, sans-serif" fill="#1f6a33" transform="rotate(-90 1104 370)">Laenge 30 m</text>

  <text x="600" y="585" text-anchor="middle" font-size="18" font-family="Arial, sans-serif" fill="#8a5b00">
    Mini-Tore stehen an den Torlinien links/rechts neben den D-Jugend-Toren.
  </text>

  <rect x="80" y="650" width="230" height="200" fill="#e8f2ff" stroke="#2c5c8a" stroke-width="3"/>
  <rect x="350" y="650" width="230" height="200" fill="#e8f2ff" stroke="#2c5c8a" stroke-width="3"/>
  <rect x="620" y="650" width="230" height="200" fill="#e8f2ff" stroke="#2c5c8a" stroke-width="3"/>
  <rect x="890" y="650" width="230" height="200" fill="#e8f2ff" stroke="#2c5c8a" stroke-width="3"/>

  <text x="195" y="760" text-anchor="middle" font-size="24" font-family="Arial, sans-serif" fill="#173d63">Pass-Viereck 1</text>
  <text x="465" y="760" text-anchor="middle" font-size="24" font-family="Arial, sans-serif" fill="#173d63">Pass-Viereck 2</text>
  <text x="735" y="760" text-anchor="middle" font-size="24" font-family="Arial, sans-serif" fill="#173d63">Pass-Viereck 3</text>
  <text x="1005" y="760" text-anchor="middle" font-size="24" font-family="Arial, sans-serif" fill="#173d63">Pass-Viereck 4</text>

  <text x="600" y="875" text-anchor="middle" font-size="20" font-family="Arial, sans-serif" fill="#173d63">
    Jedes Pass-Viereck: 20 m x 20 m (Beispiel) | Zusatzaufbau neben den Kleinfeldern
  </text>
</svg>
